<svg width="28" height="28" viewBox="0 0 28 28" fill="none" xmlns="http://www.w3.org/2000/svg">
<path d="M9 12.75C9.69036 12.75 10.25 13.3096 10.25 14C10.25 14.6904 9.69036 15.25 9 15.25C8.30964 15.25 7.75 14.6904 7.75 14C7.75 13.3096 8.30964 12.75 9 12.75Z" fill="#1C1C1C"/>
<path d="M14 12.75C14.6904 12.75 15.25 13.3096 15.25 14C15.25 14.6904 14.6904 15.25 14 15.25C13.3096 15.25 12.75 14.6904 12.75 14C12.75 13.3096 13.3096 12.75 14 12.75Z" fill="#1C1C1C"/>
<path d="M20.25 14C20.25 13.3096 19.6904 12.75 19 12.75C18.3096 12.75 17.75 13.3096 17.75 14C17.75 14.6904 18.3096 15.25 19 15.25C19.6904 15.25 20.25 14.6904 20.25 14Z" fill="#1C1C1C"/>
</svg>
